<svg xmlns="http://www.w3.org/2000/svg" width="11.075" height="8.717" viewBox="0 0 11.075 8.717">
  <g id="camera" transform="translate(0 0)">
    <path id="Path_53" data-name="Path 53" d="M10.706,46.158a1.191,1.191,0,0,0-.874-.368H8.085v-.021a.945.945,0,0,0-.284-.684.963.963,0,0,0-.684-.284H3.958a.971.971,0,0,0-.979.969v.021H1.242a1.191,1.191,0,0,0-.874.368A1.252,1.252,0,0,0,0,47.032v5.243a1.191,1.191,0,0,0,.368.874,1.252,1.252,0,0,0,.874.368h8.59a1.191,1.191,0,0,0,.874-.368,1.252,1.252,0,0,0,.368-.874V47.032A1.191,1.191,0,0,0,10.706,46.158Zm-.179,6.116h-.011a.683.683,0,0,1-.684.684H1.242a.683.683,0,0,1-.684-.684V47.032a.683.683,0,0,1,.684-.684H3.274a.283.283,0,0,0,.284-.284v-.305a.4.4,0,0,1,.411-.411H7.116a.4.4,0,0,1,.411.411v.305a.283.283,0,0,0,.284.284H9.843a.683.683,0,0,1,.684.684Z" transform="translate(0 -44.8)" fill="#fff"/>
    <path id="Path_54" data-name="Path 54" d="M114.59,130.8a2.588,2.588,0,1,0,1.832.758A2.594,2.594,0,0,0,114.59,130.8Zm1.432,4.032a2.033,2.033,0,0,1-2.863,0,2.013,2.013,0,0,1-.59-1.432,2.057,2.057,0,0,1,.59-1.432,2.012,2.012,0,0,1,1.432-.59,2.057,2.057,0,0,1,1.432.59,2.013,2.013,0,0,1,.59,1.432A1.97,1.97,0,0,1,116.021,134.832Z" transform="translate(-109.052 -128.537)" fill="#fff"/>
    <circle id="Ellipse_8" data-name="Ellipse 8" cx="0.516" cy="0.516" r="0.516" transform="translate(8.769 2.253)" fill="#fff"/>
  </g>
</svg>
