<svg id="_001-trolley" data-name="001-trolley" xmlns="http://www.w3.org/2000/svg" width="29.718" height="24.765" viewBox="0 0 29.718 24.765">
  <path id="Path_1560" data-name="Path 1560" d="M24.038,22.574H12.395a3.093,3.093,0,0,1-2.973-2.249L5.485,6.585A1.853,1.853,0,0,0,3.7,5.238H.619A.619.619,0,1,1,.619,4H3.7A3.093,3.093,0,0,1,6.675,6.249l.776,2.7H27.859a1.856,1.856,0,0,1,1.778,2.39l-2.663,9.1A3.091,3.091,0,0,1,24.038,22.574ZM7.806,10.191l2.807,9.8a1.851,1.851,0,0,0,1.782,1.347H24.038a1.869,1.869,0,0,0,1.753-1.261l2.661-9.086a.62.62,0,0,0-.593-.8Z" transform="translate(0 -4)"/>
  <path id="Path_1561" data-name="Path 1561" d="M11.476,24.953a2.476,2.476,0,1,1,2.476-2.476A2.479,2.479,0,0,1,11.476,24.953Zm0-3.715a1.238,1.238,0,1,0,1.238,1.238A1.239,1.239,0,0,0,11.476,21.238Z" transform="translate(2.144 -0.188)"/>
  <path id="Path_1562" data-name="Path 1562" d="M18.476,24.953a2.476,2.476,0,1,1,2.476-2.476A2.479,2.479,0,0,1,18.476,24.953Zm0-3.715a1.238,1.238,0,1,0,1.238,1.238A1.239,1.239,0,0,0,18.476,21.238Z" transform="translate(3.812 -0.188)"/>
</svg>
