<svg xmlns="http://www.w3.org/2000/svg" width="152.128" height="168.066" viewBox="0 0 152.128 168.066">
  <g id="downloadable" transform="translate(1188.451 -11058.488)">
    <path id="path120" d="M1233.664-2835.033a29.684,29.684,0,0,0-29.644,29.653v91.84a29.673,29.673,0,0,0,29.644,29.64h75.9a29.674,29.674,0,0,0,29.644-29.64v-91.84a29.685,29.685,0,0,0-29.644-29.653Zm75.9,159.6h-75.9a38.154,38.154,0,0,1-38.115-38.107v-91.84a38.166,38.166,0,0,1,38.115-38.12h75.9a38.162,38.162,0,0,1,38.111,38.12v91.84a38.151,38.151,0,0,1-38.111,38.107" transform="translate(-2384 13901.988)" fill="#ff0c0c"/>
    <path id="path122" d="M1311.141-2718.527h-48.248a4.234,4.234,0,0,1-4.235-4.24,4.231,4.231,0,0,1,4.235-4.227h48.248a4.232,4.232,0,0,1,4.236,4.227,4.235,4.235,0,0,1-4.236,4.24" transform="translate(-2384 13901.988)" fill="#ff0c0c"/>
    <path id="path124" d="M1311.141-2755.233h-79.053a4.231,4.231,0,0,1-4.235-4.227,4.234,4.234,0,0,1,4.235-4.24h79.053a4.235,4.235,0,0,1,4.236,4.24,4.232,4.232,0,0,1-4.236,4.227" transform="translate(-2384 13901.988)" fill="#ff0c0c"/>
    <path id="path126" d="M1311.141-2791.926h-79.053a4.234,4.234,0,0,1-4.235-4.24,4.243,4.243,0,0,1,4.235-4.24h79.053a4.244,4.244,0,0,1,4.236,4.24,4.236,4.236,0,0,1-4.236,4.24" transform="translate(-2384 13901.988)" fill="#ff0c0c"/>
  </g>
</svg>
