<svg xmlns="http://www.w3.org/2000/svg" width="29.974" height="39.391" viewBox="0 0 29.974 39.391">
  <g id="_002-flash" data-name="002-flash" transform="matrix(0.951, 0.309, -0.309, 0.951, 10.772, 0)" opacity="0.3">
    <path id="Path_33" data-name="Path 33" d="M7.571,34.858A1.352,1.352,0,0,1,6.31,33.406c0-.026,0-.123,0-.15L7.5,20.334H1.262A1.352,1.352,0,0,1,0,18.881a1.625,1.625,0,0,1,.254-.873L10.327.614A1.239,1.239,0,0,1,11.357,0a1.352,1.352,0,0,1,1.262,1.452c0,.029,0,.144,0,.173l-1.18,11.446h7.493a1.352,1.352,0,0,1,1.262,1.452,1.641,1.641,0,0,1-.252.871L8.595,34.255a1.234,1.234,0,0,1-1.023.6Zm3.789-33.4L1.282,18.849l6.92.032a.6.6,0,0,1,.469.241.792.792,0,0,1,.158.562L7.568,33.41,18.929,14.524v-.006l-8.2.006a.6.6,0,0,1-.472-.244.8.8,0,0,1-.155-.568Z" transform="translate(0 0)" fill="#fff"/>
  </g>
</svg>
