<svg xmlns="http://www.w3.org/2000/svg" width="29.898" height="25.622" viewBox="0 0 29.898 25.622">
  <path id="Path_1559" data-name="Path 1559" d="M29.682,36.41l-13.953-11.4a1.23,1.23,0,0,0-1.557,0L10.6,27.928V26.412A.592.592,0,0,0,10,25.82H6.565a.592.592,0,0,0-.593.592v5.3L.218,36.41a.593.593,0,0,0,.75.918l2.987-2.442V49.759a.592.592,0,0,0,.592.592h20.8a.593.593,0,0,0,.593-.592V34.887l2.987,2.442a.593.593,0,0,0,.749-.918ZM7.158,27H9.412V28.9L7.158,30.739Zm17.6,22.162H5.14V33.918l9.3-7.6a.8.8,0,0,1,1.014,0l9.3,7.6Z" transform="translate(-0.001 -24.729)" fill="#0e887c"/>
</svg>
