<svg xmlns="http://www.w3.org/2000/svg" width="13.5" height="15.3" viewBox="0 0 13.5 15.3">
  <path id="icon_user" data-name="icon / user" d="M12.75,15.3a.717.717,0,0,1-.75-.765V13a2.223,2.223,0,0,0-2.25-2.295h-6A2.223,2.223,0,0,0,1.5,13v1.53a.717.717,0,0,1-.75.765A.717.717,0,0,1,0,14.535V13A3.748,3.748,0,0,1,3.75,9.18h6A3.748,3.748,0,0,1,13.5,13v1.53A.717.717,0,0,1,12.75,15.3Zm-6-7.65A3.748,3.748,0,0,1,3,3.825a3.751,3.751,0,1,1,7.5,0A3.748,3.748,0,0,1,6.75,7.65Zm0-6.12a2.223,2.223,0,0,0-2.25,2.3,2.25,2.25,0,1,0,4.5,0A2.223,2.223,0,0,0,6.75,1.53Z"/>
</svg>
