<svg xmlns="http://www.w3.org/2000/svg" width="16" height="14" viewBox="0 0 16 14">
  <path id="icon_heart" data-name="icon / heart" d="M7.988,14a.637.637,0,0,1-.49-.208l-6.167-6.1A4.574,4.574,0,0,1,0,4.505,4.324,4.324,0,0,1,1.4,1.317,4.5,4.5,0,0,1,4.59.017a4.5,4.5,0,0,1,3.188,1.3l.28.277.28-.277A4.68,4.68,0,0,1,11.562,0a4.467,4.467,0,0,1,3.153,1.317,3.764,3.764,0,0,1,1.261,3.188,4.574,4.574,0,0,1-1.331,3.188l-6.166,6.1A.64.64,0,0,1,7.988,14ZM4.555,1.386a2.939,2.939,0,0,0-2.173.9,3.308,3.308,0,0,0-.911,2.218,3.009,3.009,0,0,0,.911,2.218l5.676,5.614,5.676-5.614a3.091,3.091,0,0,0,.981-2.218A3.311,3.311,0,0,0,13.8,2.287a3.388,3.388,0,0,0-2.243-.9,3.427,3.427,0,0,0-2.313.9l-.7.762a.682.682,0,0,1-.981,0L6.8,2.287A3.077,3.077,0,0,0,4.555,1.386Z"/>
</svg>
