<svg xmlns="http://www.w3.org/2000/svg" width="18.3" height="20.838" viewBox="0 0 18.3 20.838">
  <g id="Component_65_1" data-name="Component 65 – 1" transform="translate(0.9 0.9)">
    <path id="Path" d="M8.25,0A8.12,8.12,0,0,0,0,7.933C0,13.8,7.508,18.721,7.755,18.879a1.205,1.205,0,0,0,.495.159,1.205,1.205,0,0,0,.5-.159C8.993,18.721,16.5,13.8,16.5,7.933A8.12,8.12,0,0,0,8.25,0Z" fill="none" stroke="#d5232a" stroke-width="1.8"/>
    <path id="Path-2" data-name="Path" d="M2.929,5.633A2.883,2.883,0,0,1,0,2.816,2.883,2.883,0,0,1,2.929,0,2.883,2.883,0,0,1,5.858,2.816,2.883,2.883,0,0,1,2.929,5.633Z" transform="translate(5.321 5.367)" fill="none" stroke="#d5232a" stroke-width="1.8"/>
  </g>
</svg>
