<svg xmlns="http://www.w3.org/2000/svg" width="152.453" height="194.813" viewBox="0 0 152.453 194.813">
  <g id="location_on" transform="translate(398.512 -11842.873)">
    <path id="path172" d="M2061.715-2050.648a67.84,67.84,0,0,0-67.76,67.76c0,33.053,54.187,93.533,67.76,108.16,13.573-14.627,67.76-75.106,67.76-108.16A67.841,67.841,0,0,0,2061.715-2050.648Zm0,186.346a4.246,4.246,0,0,1-3.053-1.307c-2.987-3.093-73.173-76.28-73.173-117.28a76.311,76.311,0,0,1,76.226-76.227,76.319,76.319,0,0,1,76.227,76.227c0,41-70.2,114.186-73.187,117.28a4.239,4.239,0,0,1-3.04,1.307" transform="translate(-2384 13901.988)" fill="#ff0c0c"/>
    <path id="path174" d="M2061.715-2016.768a25.442,25.442,0,0,0-25.413,25.413,25.442,25.442,0,0,0,25.413,25.413,25.43,25.43,0,0,0,25.4-25.413A25.43,25.43,0,0,0,2061.715-2016.768Zm0,59.293a33.92,33.92,0,0,1-33.88-33.88,33.92,33.92,0,0,1,33.88-33.88,33.92,33.92,0,0,1,33.88,33.88,33.92,33.92,0,0,1-33.88,33.88" transform="translate(-2384 13901.988)" fill="#ff0c0c"/>
  </g>
</svg>
