<svg id="Group_94" data-name="Group 94" xmlns="http://www.w3.org/2000/svg" width="21.237" height="16.129" viewBox="0 0 21.237 16.129">
  <path id="path326" d="M6105.908-2822.216a3.75,3.75,0,0,0-3.745,3.747v6.5a3.749,3.749,0,0,0,3.745,3.745h11.6a3.749,3.749,0,0,0,3.745-3.745v-6.5a3.75,3.75,0,0,0-3.745-3.747Zm11.6,15.06h-11.6a4.823,4.823,0,0,1-4.816-4.816v-6.5a4.822,4.822,0,0,1,4.816-4.816h11.6a4.822,4.822,0,0,1,4.816,4.816v6.5a4.823,4.823,0,0,1-4.816,4.816" transform="translate(-6101.092 2823.286)" fill="#31aca0"/>
  <path id="path328" d="M6133.661-2790.2a3.807,3.807,0,0,1-1.963-.543l-5.241-3.669a.533.533,0,0,1-.131-.745.533.533,0,0,1,.744-.131l5.209,3.649a2.765,2.765,0,0,0,2.815-.022l5.177-3.627a.534.534,0,0,1,.745.131.533.533,0,0,1-.132.744l-5.209,3.649a3.921,3.921,0,0,1-2.015.563" transform="translate(-6123.052 2798.914)" fill="#31aca0"/>
</svg>
