<svg xmlns="http://www.w3.org/2000/svg" width="16.83" height="16.174" viewBox="0 0 16.83 16.174">
  <g id="_001-offer" data-name="001-offer" transform="translate(0.376 0.339)">
    <path id="Path_1" data-name="Path 1" d="M22.669,15.011a1.318,1.318,0,0,1-.361-1.111l.053-.374a2.076,2.076,0,0,0-1.7-2.346l-.372-.066a1.321,1.321,0,0,1-.944-.686l-.178-.332a2.075,2.075,0,0,0-2.758-.9l-.34.164a1.321,1.321,0,0,1-1.167,0L14.56,9.2a2.077,2.077,0,0,0-2.758.9l-.178.332a1.32,1.32,0,0,1-.944.686l-.372.066a2.076,2.076,0,0,0-1.7,2.346l.053.374A1.318,1.318,0,0,1,8.3,15.009l-.263.27a2.074,2.074,0,0,0,0,2.9l.263.272a1.318,1.318,0,0,1,.361,1.111l-.053.374a2.076,2.076,0,0,0,1.7,2.346l.372.066a1.321,1.321,0,0,1,.944.686l.178.332a2.075,2.075,0,0,0,2.758.9L14.9,24.1a1.321,1.321,0,0,1,1.167,0l.338.166a2.077,2.077,0,0,0,2.758-.9l.178-.332a1.32,1.32,0,0,1,.944-.686l.372-.066a2.076,2.076,0,0,0,1.7-2.346l-.053-.374a1.318,1.318,0,0,1,.361-1.111l.263-.27a2.074,2.074,0,0,0,0-2.9Zm-.281,2.646-.263.27a2.075,2.075,0,0,0-.567,1.742l.053.374a1.323,1.323,0,0,1-1.086,1.5l-.372.066a2.066,2.066,0,0,0-1.481,1.077l-.178.332a1.325,1.325,0,0,1-1.759.572L16.4,23.42a2.069,2.069,0,0,0-1.832,0l-.338.166a1.323,1.323,0,0,1-1.759-.572l-.178-.332a2.073,2.073,0,0,0-1.481-1.077l-.372-.066a1.323,1.323,0,0,1-1.086-1.5l.053-.374a2.067,2.067,0,0,0-.567-1.742l-.263-.272a1.323,1.323,0,0,1,0-1.849l.263-.27A2.075,2.075,0,0,0,9.4,13.794l-.053-.374a1.323,1.323,0,0,1,1.086-1.5l.372-.066a2.066,2.066,0,0,0,1.481-1.077l.178-.332A1.323,1.323,0,0,1,13.64,9.74a1.342,1.342,0,0,1,.587.136l.338.166a2.069,2.069,0,0,0,1.832,0l.338-.166a1.323,1.323,0,0,1,1.759.572l.178.332a2.073,2.073,0,0,0,1.481,1.077l.372.066a1.323,1.323,0,0,1,1.086,1.5l-.053.374a2.067,2.067,0,0,0,.567,1.742l.263.272A1.323,1.323,0,0,1,22.388,17.657Z" transform="translate(-7.442 -8.984)" fill="#fbfbfb" stroke="#fbfbfb" stroke-width="0.5"/>
    <path id="Path_2" data-name="Path 2" d="M39.626,33.616a.379.379,0,0,0-.535,0l-5.476,5.476a.377.377,0,1,0,.533.535l5.476-5.476a.377.377,0,0,0,0-.535Z" transform="translate(-28.582 -28.873)" fill="#fbfbfb" stroke="#fbfbfb" stroke-width="0.5"/>
    <path id="Path_3" data-name="Path 3" d="M34.976,30.927a1.606,1.606,0,1,0-1.135-.47,1.6,1.6,0,0,0,1.135.47Zm-.6-2.206a.848.848,0,1,1-.249.6A.847.847,0,0,1,34.375,28.721Z" transform="translate(-28.472 -24.179)" fill="#fbfbfb" stroke="#fbfbfb" stroke-width="0.5"/>
    <path id="Path_4" data-name="Path 4" d="M50.106,55.76A1.606,1.606,0,1,0,52.847,56.9a1.606,1.606,0,0,0-2.741-1.135ZM51.842,57.5a.848.848,0,1,1,.249-.6A.852.852,0,0,1,51.842,57.5Z" transform="translate(-41.667 -46.543)" fill="#fbfbfb" stroke="#fbfbfb" stroke-width="0.5"/>
  </g>
</svg>
