<svg xmlns="http://www.w3.org/2000/svg" width="168.066" height="168.08" viewBox="0 0 168.066 168.08">
  <g id="orders" transform="translate(11.272 -10659.609)">
    <path id="path62" d="M2410.834-3233.9a29.67,29.67,0,0,0-29.64,29.64v91.84a29.67,29.67,0,0,0,29.64,29.64h91.84a29.681,29.681,0,0,0,29.653-29.64v-91.84a29.681,29.681,0,0,0-29.653-29.64Zm91.84,159.6h-91.84a38.16,38.16,0,0,1-38.107-38.12v-91.84a38.16,38.16,0,0,1,38.107-38.12h91.84a38.171,38.171,0,0,1,38.12,38.12v91.84a38.171,38.171,0,0,1-38.12,38.12" transform="translate(-2384 13901.988)" fill="#ff0c0c"/>
    <path id="path64" d="M2405.674-3130.072a4.21,4.21,0,0,1-2.987-1.24,4.233,4.233,0,0,1,0-5.987l22.533-22.533a23.377,23.377,0,0,1,33.027,0,15.239,15.239,0,0,0,21.053,0l25.547-25.533a4.233,4.233,0,0,1,5.987,0,4.233,4.233,0,0,1,0,5.987l-25.547,25.533a23.153,23.153,0,0,1-16.507,6.84,23.2,23.2,0,0,1-16.52-6.84,14.912,14.912,0,0,0-21.053,0l-22.533,22.533a4.242,4.242,0,0,1-3,1.24" transform="translate(-2384 13901.988)" fill="#ff0c0c"/>
  </g>
</svg>
