<svg xmlns="http://www.w3.org/2000/svg" width="21.284" height="18.427" viewBox="0 0 21.284 18.427">
  <g id="Group_96" data-name="Group 96" transform="translate(-1736.963 -11065.529)">
    <path id="path312" d="M4140.06-2822.593a3.55,3.55,0,0,1-3.547,3.547h-10.99a3.551,3.551,0,0,1-3.547-3.547v-9.3a3.551,3.551,0,0,1,3.547-3.547h10.99a3.55,3.55,0,0,1,3.547,3.547v1.372h1.015v-1.372a4.568,4.568,0,0,0-4.562-4.562h-10.99a4.566,4.566,0,0,0-4.56,4.562v9.3a4.565,4.565,0,0,0,4.56,4.56h10.99a4.566,4.566,0,0,0,4.562-4.56v-1.372h-1.015v1.372" transform="translate(-2384 13901.988)" fill="#31aca0"/>
    <path id="path314" d="M4210.324-2790.1a2.776,2.776,0,0,0-2.773,2.775,2.776,2.776,0,0,0,2.773,2.773h6.244v-5.548Zm6.749,6.561h-6.749a3.79,3.79,0,0,1-3.788-3.786,3.792,3.792,0,0,1,3.788-3.788h6.749a.507.507,0,0,1,.507.507v6.561a.506.506,0,0,1-.507.506" transform="translate(-2459.333 13862.068)" fill="#31aca0"/>
    <path id="path316" d="M4230.356-2769.512a1.581,1.581,0,0,1-1.58-1.579,1.583,1.583,0,0,1,1.58-1.581.507.507,0,0,1,.507.508.506.506,0,0,1-.507.506.569.569,0,0,0-.566.568.568.568,0,0,0,.566.566.507.507,0,0,1,.507.507.506.506,0,0,1-.507.506" transform="translate(-2478.912 13845.835)" fill="#31aca0"/>
  </g>
</svg>
