<svg xmlns="http://www.w3.org/2000/svg" width="147.502" height="161.372" viewBox="0 0 147.502 161.372">
  <g id="Group_766" data-name="Group 766" transform="translate(1581.183 -11460.715)">
    <path id="path190" d="M876.567-2432.807a35.53,35.53,0,0,0-35.489,35.493,35.527,35.527,0,0,0,35.489,35.48,35.528,35.528,0,0,0,35.489-35.48A35.53,35.53,0,0,0,876.567-2432.807Zm0,79.453a44.01,44.01,0,0,1-43.96-43.96,44.01,44.01,0,0,1,43.96-43.96,44.008,44.008,0,0,1,43.959,43.96,44.008,44.008,0,0,1-43.959,43.96" transform="translate(-2384 13901.988)" fill="#ff0c0c"/>
    <path id="path192" d="M946.084-2279.9a4.234,4.234,0,0,1-4.235-4.24,65.361,65.361,0,0,0-65.283-65.28,65.36,65.36,0,0,0-65.281,65.28,4.234,4.234,0,0,1-4.235,4.24,4.234,4.234,0,0,1-4.235-4.24,73.839,73.839,0,0,1,73.75-73.746,73.84,73.84,0,0,1,73.752,73.746,4.234,4.234,0,0,1-4.235,4.24" transform="translate(-2384 13901.988)" fill="#ff0c0c"/>
    <path id="path194" d="M863.994-2392.514a8.91,8.91,0,0,1-8.895-8.893,4.234,4.234,0,0,1,4.235-4.24,4.235,4.235,0,0,1,4.236,4.24.419.419,0,0,0,.424.413,4.243,4.243,0,0,1,4.235,4.24,4.243,4.243,0,0,1-4.235,4.24" transform="translate(-2384 13901.988)" fill="#ff0c0c"/>
    <path id="path196" d="M892.234-2392.514a8.909,8.909,0,0,1-8.893-8.893,4.234,4.234,0,0,1,4.235-4.24,4.234,4.234,0,0,1,4.235,4.24.42.42,0,0,0,.424.413,4.243,4.243,0,0,1,4.235,4.24,4.243,4.243,0,0,1-4.235,4.24" transform="translate(-2384 13901.988)" fill="#ff0c0c"/>
  </g>
</svg>
