<svg xmlns="http://www.w3.org/2000/svg" width="15" height="15" viewBox="0 0 15 15">
  <g id="Rounded_Rectangle_1286" data-name="Rounded Rectangle 1286" transform="translate(-1 -1)" fill="#fff" stroke-miterlimit="10">
    <path d="M 14.00002956390381 15.49990272521973 L 2.999969959259033 15.49990272521973 C 2.172889947891235 15.49990272521973 1.500010013580322 14.82706260681152 1.500010013580322 14.00002288818359 L 1.500010013580322 2.999952793121338 C 1.500010013580322 2.172912836074829 2.172889947891235 1.500062823295593 2.999969959259033 1.500062823295593 L 14.00002956390381 1.500062823295593 C 14.82711029052734 1.500062823295593 15.49999046325684 2.172912836074829 15.49999046325684 2.999952793121338 L 15.49999046325684 14.00002288818359 C 15.49999046325684 14.82706260681152 14.82711029052734 15.49990272521973 14.00002956390381 15.49990272521973 Z" stroke="none"/>
    <path d="M 2.999970436096191 2.000062942504883 C 2.448590278625488 2.000062942504883 2.000009536743164 2.448613166809082 2.000009536743164 2.999953269958496 L 2.000009536743164 14.00002288818359 C 2.000009536743164 14.55136299133301 2.448590278625488 14.99990272521973 2.999970436096191 14.99990272521973 L 14.00003051757812 14.99990272521973 C 14.55140972137451 14.99990272521973 14.99999046325684 14.55136299133301 14.99999046325684 14.00002288818359 L 14.99999046325684 2.999953269958496 C 14.99999046325684 2.448613166809082 14.55140972137451 2.000062942504883 14.00003051757812 2.000062942504883 L 2.999970436096191 2.000062942504883 M 2.999970436096191 1.000062942504883 L 14.00003051757812 1.000062942504883 C 15.1046199798584 1.000062942504883 15.99999046325684 1.895342826843262 15.99999046325684 2.999953269958496 L 15.99999046325684 14.00002288818359 C 15.99999046325684 15.10462284088135 15.1046199798584 15.99990272521973 14.00003051757812 15.99990272521973 L 2.999970436096191 15.99990272521973 C 1.895380020141602 15.99990272521973 1.000009536743164 15.10462284088135 1.000009536743164 14.00002288818359 L 1.000009536743164 2.999953269958496 C 1.000009536743164 1.895342826843262 1.895380020141602 1.000062942504883 2.999970436096191 1.000062942504883 Z" stroke="none" fill="#91ad41"/>
  </g>
</svg>
