<svg xmlns="http://www.w3.org/2000/svg" width="15" height="15" viewBox="0 0 15 15">
  <g id="Group_965" data-name="Group 965" transform="translate(-1 -1)">
    <g id="Rounded_Rectangle_1285" data-name="Rounded Rectangle 1285" fill="#fbfaf8" stroke-miterlimit="10">
      <path d="M 14.00002956390381 15.50001239776611 L 2.999969959259033 15.50001239776611 C 2.172889947891235 15.50001239776611 1.500010013580322 14.827073097229 1.500010013580322 13.99992275238037 L 1.500010013580322 3.000042915344238 C 1.500010013580322 2.172892808914185 2.172889947891235 1.499952793121338 2.999969959259033 1.499952793121338 L 14.00002956390381 1.499952793121338 C 14.82711029052734 1.499952793121338 15.49999046325684 2.172892808914185 15.49999046325684 3.000042915344238 L 15.49999046325684 13.99992275238037 C 15.49999046325684 14.827073097229 14.82711029052734 15.50001239776611 14.00002956390381 15.50001239776611 Z" stroke="none"/>
      <path d="M 2.999970436096191 1.999953269958496 C 2.448590278625488 1.999953269958496 2.000009536743164 2.448593139648438 2.000009536743164 3.000042915344238 L 2.000009536743164 13.99992275238037 C 2.000009536743164 14.55137252807617 2.448590278625488 15.00001335144043 2.999970436096191 15.00001335144043 L 14.00003051757812 15.00001335144043 C 14.55140972137451 15.00001335144043 14.99999046325684 14.55137252807617 14.99999046325684 13.99992275238037 L 14.99999046325684 3.000042915344238 C 14.99999046325684 2.448593139648438 14.55140972137451 1.999953269958496 14.00003051757812 1.999953269958496 L 2.999970436096191 1.999953269958496 M 2.999970436096191 0.9999523162841797 L 14.00003051757812 0.9999523162841797 C 15.1046199798584 0.9999523162841797 15.99999046325684 1.895452499389648 15.99999046325684 3.000042915344238 L 15.99999046325684 13.99992275238037 C 15.99999046325684 15.10451316833496 15.1046199798584 16.00001335144043 14.00003051757812 16.00001335144043 L 2.999970436096191 16.00001335144043 C 1.895380020141602 16.00001335144043 1.000009536743164 15.10451316833496 1.000009536743164 13.99992275238037 L 1.000009536743164 3.000042915344238 C 1.000009536743164 1.895452499389648 1.895380020141602 0.9999523162841797 2.999970436096191 0.9999523162841797 Z" stroke="none" fill="#f7eee2"/>
    </g>
    <rect id="Rectangle_298" data-name="Rectangle 298" width="9" height="9" rx="2" transform="translate(4 4)" fill="#91ad41"/>
  </g>
</svg>
