<svg xmlns="http://www.w3.org/2000/svg" width="17.831" height="17.766" viewBox="0 0 17.831 17.766">
  <g id="Group_112" data-name="Group 112" transform="translate(0.5 0.5)">
    <path id="Fill_140" data-name="Fill 140" d="M7.254,14.509a7.254,7.254,0,1,1,7.255-7.255A7.263,7.263,0,0,1,7.254,14.509Zm0-13.343a6.089,6.089,0,1,0,6.089,6.088A6.1,6.1,0,0,0,7.254,1.166Z" transform="translate(0 0)" fill="none" stroke="#d5232a" stroke-width="1"/>
    <path id="Fill_141" data-name="Fill 141" d="M4.586,5.169A.578.578,0,0,1,4.174,5l-4-4A.583.583,0,0,1,1,.171l4,4a.583.583,0,0,1-.412.994" transform="translate(11.597 11.597)" fill="#da3d43" stroke="#d5232a" stroke-width="1"/>
  </g>
</svg>
