<svg xmlns="http://www.w3.org/2000/svg" width="39.479" height="37.954" viewBox="0 0 39.479 37.954">
  <g id="_001-shopping-cart" data-name="001-shopping-cart" transform="translate(0 16.086) rotate(-31)" opacity="0.51">
    <path id="Path_30" data-name="Path 30" d="M3.72,0A3.72,3.72,0,1,0,7.44,3.72,3.72,3.72,0,0,0,3.72,0Zm0,6.072A2.352,2.352,0,1,1,6.072,3.72,2.352,2.352,0,0,1,3.72,6.072Zm0,0" transform="translate(6.561 22.015)" fill="#fff"/>
    <path id="Path_31" data-name="Path 31" d="M30.555,6.4H6.411L5.919,3.648A4.11,4.11,0,0,0,2.589.325L.8.011A.684.684,0,1,0,.565,1.358l1.791.314A2.735,2.735,0,0,1,4.572,3.888l2.42,13.655a3.412,3.412,0,0,0,3.364,2.824H24.716a3.41,3.41,0,0,0,3.275-2.427L31.2,7.286a.715.715,0,0,0-.1-.608.692.692,0,0,0-.547-.274Zm-3.87,11.132a2.037,2.037,0,0,1-1.962,1.457H10.363a2.041,2.041,0,0,1-2.017-1.7L6.657,7.765H29.639Zm0,0" transform="translate(0 0)" fill="#fff"/>
    <path id="Path_32" data-name="Path 32" d="M3.72,0A3.72,3.72,0,1,0,7.44,3.72,3.72,3.72,0,0,0,3.72,0Zm0,6.072A2.352,2.352,0,1,1,6.072,3.72,2.352,2.352,0,0,1,3.72,6.072Zm0,0" transform="translate(20.921 22.015)" fill="#fff"/>
  </g>
</svg>
