<svg xmlns="http://www.w3.org/2000/svg" width="13.726" height="14.534" viewBox="0 0 13.726 14.534">
  <path id="icon_shopping-bag" data-name="icon / shopping-bag" d="M11.667,14.534H2.059A1.977,1.977,0,0,1,0,12.552V3.039a.066.066,0,0,0,.069-.066.066.066,0,0,0,.069-.066L2.2.264A.626.626,0,0,1,2.745,0h8.236a.473.473,0,0,1,.481.264L13.52,2.907a.066.066,0,0,1,.069.066.066.066,0,0,1,.069.066.487.487,0,0,1,.069.265v9.248A1.977,1.977,0,0,1,11.667,14.534ZM1.372,3.964v8.588a.638.638,0,0,0,.686.661h9.609a.638.638,0,0,0,.686-.661V3.964ZM3.088,1.321,2.059,2.642h9.609l-1.03-1.321ZM6.863,9.249a3.333,3.333,0,0,1-3.431-3.3.638.638,0,0,1,.686-.661.638.638,0,0,1,.686.661A1.977,1.977,0,0,0,6.863,7.927,1.977,1.977,0,0,0,8.922,5.946a.638.638,0,0,1,.687-.661.638.638,0,0,1,.686.661A3.334,3.334,0,0,1,6.863,9.249Z"/>
</svg>
