<svg xmlns="http://www.w3.org/2000/svg" width="15.979" height="18.765" viewBox="0 0 15.979 18.765">
  <g id="Group_95" data-name="Group 95" transform="translate(1571.659 -12263.726)">
    <path id="path48" d="M829.406-1630.013a.525.525,0,0,1-.372-.154l-6.823-6.823-6.823,6.823a.527.527,0,0,1-.745,0,.527.527,0,0,1,0-.745l7.2-7.2a.527.527,0,0,1,.745,0l7.2,7.2a.526.526,0,0,1,0,.745.525.525,0,0,1-.372.154" transform="translate(-2385.88 13901.988)"/>
    <path id="path50" d="M872.859-1623.81a.528.528,0,0,1-.527-.527v-13.4a.527.527,0,0,1,.527-.527.527.527,0,0,1,.527.527v13.4a.528.528,0,0,1-.527.527" transform="translate(-2436.529 13901.988)"/>
    <path id="path52" d="M827.793-1494.835H812.867a.528.528,0,0,1-.527-.527.528.528,0,0,1,.527-.527h14.925a.528.528,0,0,1,.527.527.528.528,0,0,1-.527.527" transform="translate(-2384 13777.325)"/>
  </g>
</svg>
