<svg xmlns="http://www.w3.org/2000/svg" width="20.463" height="19.607" viewBox="0 0 20.463 19.607">
  <path id="_001-star" data-name="001-star" d="M19.8,9.834a1.451,1.451,0,0,0-.8-2.476l-4.9-.712a.64.64,0,0,1-.482-.351L11.42,1.856a1.451,1.451,0,0,0-2.6,0L6.626,6.3a.641.641,0,0,1-.483.351l-4.9.712a1.451,1.451,0,0,0-.8,2.475L3.985,13.29a.642.642,0,0,1,.185.567l-.837,4.88a1.451,1.451,0,0,0,2.106,1.53l4.382-2.3a.641.641,0,0,1,.6,0l4.383,2.3a1.451,1.451,0,0,0,2.106-1.53l-.837-4.88a.641.641,0,0,1,.185-.567ZM15.27,13.995l.837,4.88a.641.641,0,0,1-.93.676l-4.383-2.3a1.452,1.452,0,0,0-1.351,0l-4.382,2.3a.641.641,0,0,1-.93-.676l.837-4.88a1.451,1.451,0,0,0-.417-1.285L1.005,9.254A.641.641,0,0,1,1.36,8.16l4.9-.712a1.449,1.449,0,0,0,1.093-.794l2.191-4.44a.641.641,0,0,1,1.15,0l2.191,4.44a1.449,1.449,0,0,0,1.093.794l4.9.712a.641.641,0,0,1,.355,1.093L15.687,12.71A1.451,1.451,0,0,0,15.27,13.995Z" transform="translate(0.113 -0.947)" stroke="#000" stroke-width="0.2"/>
</svg>
